<svg fill="none" height="24" viewBox="0 0 24 24" width="24" xmlns="http://www.w3.org/2000/svg">
  <title>Seedance</title>
  <g clip-path="url(#seedance-a)">
    <g transform="matrix(-0.009271 -0.017448 0.0215011 -0.0134883 13.0472 18.2292)">
      <rect fill="url(#seedance-gradient-a)" height="666.506" width="1077.71" />
      <rect fill="url(#seedance-gradient-a)" height="666.506" transform="scale(1 -1)" width="1077.71" />
      <rect fill="url(#seedance-gradient-a)" height="666.506" transform="scale(-1 1)" width="1077.71" />
      <rect fill="url(#seedance-gradient-a)" height="666.506" transform="scale(-1)" width="1077.71" />
    </g>
  </g>
  <g clip-path="url(#seedance-b)">
    <g transform="matrix(-0.00282575 -0.00489434 0.00971874 -0.00561112 16.5909 23.2227)">
      <rect fill="url(#seedance-gradient-b)" height="1485.61" width="4828.03" />
      <rect fill="url(#seedance-gradient-b)" height="1485.61" transform="scale(1 -1)" width="4828.03" />
      <rect fill="url(#seedance-gradient-b)" height="1485.61" transform="scale(-1 1)" width="4828.03" />
      <rect fill="url(#seedance-gradient-b)" height="1485.61" transform="scale(-1)" width="4828.03" />
    </g>
  </g>
  <defs>
    <clipPath id="seedance-a">
      <path d="M5.257 1.808C8.768 6.741 14.431 9.451 20.064 8.403c.398-.074.831-.206 1.281-.38.855-.329 1.975 1.011 1.326 1.658-.43.428-.84.82-1.208 1.147-2.536 2.251-5.337 4.281-8.389 6.044-3.071 1.773-6.25 3.19-9.49 4.263-.453.15-.98.304-1.546.457-.885.238-1.484-1.4-.771-1.975.379-.306.713-.617.979-.927 3.723-4.354 4.053-10.516 1.471-15.993-.111-.237-.235-.525-.364-.84-.358-.876.689-1.522 1.303-.802.243.284.453.544.601.752Z" />
    </clipPath>
    <clipPath id="seedance-b">
      <path d="M19.529 13.695c-2.323 2.863-2.815 5.944-2.378 8.583l.025.16c.117.79-.816 1.277-1.448.787l-.093-.071c-2.12-1.614-4.621-2.828-7.949-2.446 2.015-.591 4.075-1.465 6.087-2.627 2.209-1.275 4.147-2.773 5.756-4.386Z" />
    </clipPath>
    <linearGradient gradientUnits="userSpaceOnUse" id="seedance-gradient-a" x1="0" x2="500" y1="0" y2="500">
      <stop stop-color="#27B2F0" />
      <stop offset=".203" stop-color="#26DFFB" />
      <stop offset=".406" stop-color="#30F5FE" />
      <stop offset=".653" stop-color="#F0FEFC" />
      <stop offset=".863" stop-color="#FBC610" />
      <stop offset="1" stop-color="#FD9C22" />
    </linearGradient>
    <linearGradient gradientUnits="userSpaceOnUse" id="seedance-gradient-b" x1="0" x2="500" y1="0" y2="500">
      <stop stop-color="#1C6FFF" />
      <stop offset="1" stop-color="#24B5EF" />
    </linearGradient>
  </defs>
</svg>
