<svg width="95" height="27" viewBox="0 0 95 27" fill="none" xmlns="http://www.w3.org/2000/svg">
<path d="M88.5309 10.8636V4.67617H93.6654V2.38512H89.8854L90.4366 1.20063L88.3419 0.21875L87.3496 2.38512H82.5774L81.5851 0.234335L79.4274 1.21621L79.9944 2.4007H76.1986V4.67617H81.3804V10.8791H75.4111V13.1546H94.5001V10.8636H88.5309ZM86.1684 10.8636H83.6799V4.67617H86.1684V10.8636Z" fill="white"/>
<path d="M74.3244 5.93795C73.9306 5.06517 72.5604 2.32214 71.7571 1.12207L69.5679 2.21305C70.3554 3.39754 71.7256 6.12498 72.1036 7.02893L74.3244 5.93795Z" fill="white"/>
<path d="M73.5682 20.1045V8.7583H68.7959V11.0338H71.2057V22.0682C70.3552 22.754 69.7094 23.2527 69.5046 23.4241L70.9064 25.1697C72.9215 23.6743 74.8219 22.0334 76.5921 20.2603L75.0959 18.655C74.6213 19.1727 74.1108 19.657 73.5682 20.1045Z" fill="white"/>
<path d="M77.1748 26.4961H92.7043V15.1499H77.1748V26.4961ZM79.5216 17.4877H90.3733V19.6697H79.5216V17.4877ZM79.5216 21.9763H90.3733V24.1738H79.5216V21.9763Z" fill="white"/>
<path d="M78.4982 5.56396L76.3877 6.3744L77.8997 10.0837L79.9472 9.22653L78.4982 5.56396Z" fill="white"/>
<path d="M92.0275 10.0837L93.4922 6.42116L91.4447 5.56396L89.917 9.28887L92.0275 10.0837Z" fill="white"/>
<path d="M47.8014 10.9098C48.1322 11.0968 50.3844 12.4527 52.4319 13.9022C52.7942 13.2787 53.2194 12.4683 53.5344 11.9072C51.5184 10.5669 48.9197 9.00835 48.9197 9.00835L49.0929 8.60313H53.6447V6.48352H49.0142V3.86518H53.2982V1.74556H45.1082C45.2657 1.40268 45.4074 1.04422 45.5177 0.748098L43.4859 0C42.8147 1.56494 42.0029 3.06716 41.0604 4.48859L43.0449 5.56398C43.3442 5.112 43.6907 4.51976 44.0529 3.88076H46.6989V6.4991H41.0604V8.61872H46.3997C45.9111 9.60709 45.1868 10.4629 44.2892 11.1124C43.2593 11.8462 42.1368 12.4436 40.9502 12.8891L41.6747 15.0711C42.9254 14.6388 44.116 14.0523 45.2184 13.3255C46.2153 12.6756 47.0895 11.858 47.8014 10.9098Z" fill="white"/>
<path d="M44.1001 26.4949H63.6616V14.8994H44.1001V26.4949ZM46.4311 17.2372H61.2991V19.5594H46.4311V17.2372ZM46.4311 21.8661H61.2833V24.1883H46.4311V21.8661Z" fill="white"/>
<path d="M55.062 12.7174H65.1893V1.43359H55.062V12.7174ZM57.393 3.70906H62.8898V10.4264H57.393V3.70906Z" fill="white"/>
<path d="M16.5376 0.0307221L14.3326 3.13221C14.1617 3.37576 13.9331 3.57414 13.6667 3.70999C13.4004 3.84584 13.1045 3.91502 12.8048 3.91148H0.787598V0.0151367H16.5376V0.0307221Z" fill="white"/>
<path d="M31.5 0.0322266L12.6 26.5274H0L18.9 0.0322266H31.5Z" fill="white"/>
<path d="M14.9624 26.5272L17.1832 23.4101C17.3564 23.169 17.5856 22.9724 17.8513 22.8368C18.1171 22.7012 18.4119 22.6306 18.7109 22.6309H30.7124V26.5272H14.9624Z" fill="white"/>
</svg>
